<?xml version="1.0" encoding="UTF-8" standalone="no"?>
<!-- Created with Inkscape (http://www.inkscape.org/) -->

<svg
   xmlns:dc="http://purl.org/dc/elements/1.1/"
   xmlns:cc="http://creativecommons.org/ns#"
   xmlns:rdf="http://www.w3.org/1999/02/22-rdf-syntax-ns#"
   xmlns:svg="http://www.w3.org/2000/svg"
   xmlns="http://www.w3.org/2000/svg"
   xmlns:sodipodi="http://sodipodi.sourceforge.net/DTD/sodipodi-0.dtd"
   xmlns:inkscape="http://www.inkscape.org/namespaces/inkscape"
   width="50mm"
   height="50.012814mm"
   viewBox="0 0 50 50.012814"
   version="1.1"
   id="svg8"
   inkscape:version="0.92.4 (5da689c313, 2019-01-14)"
   sodipodi:docname="pinterest.svg">
  <defs
     id="defs2" />
  <sodipodi:namedview
     id="base"
     pagecolor="#ffffff"
     bordercolor="#666666"
     borderopacity="1.0"
     inkscape:pageopacity="0.0"
     inkscape:pageshadow="2"
     inkscape:zoom="0.35"
     inkscape:cx="-222.61824"
     inkscape:cy="83.456739"
     inkscape:document-units="mm"
     inkscape:current-layer="layer1"
     showgrid="false"
     fit-margin-top="0"
     fit-margin-left="0"
     fit-margin-right="0"
     fit-margin-bottom="0"
     inkscape:window-width="1920"
     inkscape:window-height="1001"
     inkscape:window-x="-9"
     inkscape:window-y="-9"
     inkscape:window-maximized="1" />
  <metadata
     id="metadata5">
    <rdf:RDF>
      <cc:Work
         rdf:about="">
        <dc:format>image/svg+xml</dc:format>
        <dc:type
           rdf:resource="http://purl.org/dc/dcmitype/StillImage" />
        <dc:title></dc:title>
      </cc:Work>
    </rdf:RDF>
  </metadata>
  <g
     inkscape:label="Capa 1"
     inkscape:groupmode="layer"
     id="layer1"
     transform="translate(-33.954647,-120.90178)">
    <path
       style="fill:#bd071d;fill-opacity:1;stroke-width:1.00000024"
       d="m 56.80868,170.82866 c -1.24522,-0.10171 -2.952842,-0.397 -4.198965,-0.7261 -0.507912,-0.13411 -0.940983,-0.26134 -0.962384,-0.28272 -0.02141,-0.0218 0.298306,-0.63636 0.710468,-1.36653 0.854598,-1.51402 1.576369,-3.01296 1.94009,-4.02907 0.13739,-0.38384 0.609939,-2.0778 1.05011,-3.76439 0.440169,-1.68657 0.829749,-3.09915 0.865724,-3.13905 0.03602,-0.0398 0.198055,0.10002 0.360167,0.31097 1.079335,1.40432 3.282745,2.3504 5.477462,2.35195 2.970269,0.003 5.835081,-1.1816 8.125637,-3.35709 3.813647,-3.6223 5.678326,-10.291 4.365017,-15.61075 -0.615399,-2.49268 -1.709692,-4.47709 -3.485504,-6.32084 -2.24858,-2.3345 -4.877689,-3.74857 -8.271102,-4.44859 -1.228961,-0.25352 -4.164667,-0.35118 -5.592218,-0.18603 -5.884695,0.6808 -10.401593,3.62998 -12.660969,8.26663 -0.886267,1.81876 -1.31792,3.37968 -1.516036,5.48218 -0.341777,3.62698 1.010233,7.55659 3.371654,9.79968 1.086882,1.03247 2.096143,1.52877 2.376835,1.1689 0.150445,-0.19286 0.917849,-3.39668 0.844568,-3.52596 -0.03623,-0.0639 -0.26174,-0.41501 -0.501163,-0.78026 -0.575582,-0.87817 -1.075216,-2.1266 -1.314361,-3.28426 -0.253974,-1.22938 -0.204828,-3.45211 0.103248,-4.66914 0.638849,-2.52384 2.253401,-4.84215 4.338252,-6.22934 1.487103,-0.98951 2.805199,-1.49117 4.671245,-1.77785 4.604755,-0.7075 8.912999,1.09434 10.970304,4.58808 1.404293,2.38489 1.770168,5.5403 1.051934,9.0729 -0.788684,3.87903 -2.973022,6.72331 -5.813467,7.56983 -0.892992,0.26608 -2.469319,0.24315 -3.20184,-0.0468 -0.699883,-0.2769 -1.505097,-0.99984 -1.883061,-1.69087 -0.246917,-0.45132 -0.290463,-0.6478 -0.321584,-1.45091 -0.03414,-0.88139 -0.01046,-1.01625 0.46446,-2.63994 0.27525,-0.94111 0.698022,-2.38895 0.939454,-3.21743 0.780747,-2.67887 0.886373,-3.91022 0.438228,-5.10803 -0.240884,-0.64379 -0.854251,-1.38287 -1.36321,-1.64254 -2.264205,-1.1551 -4.98687,0.55335 -5.835051,3.66147 -0.218084,0.79917 -0.291165,2.61528 -0.142845,3.54995 0.06565,0.4137 0.232576,1.09757 0.370934,1.5198 l 0.251564,0.76754 -1.532961,6.51673 c -1.063691,4.52181 -1.566192,6.846 -1.641522,7.59225 -0.102922,1.01961 -0.06959,3.05955 0.07715,4.72203 l 0.06295,0.71312 -0.527863,-0.20656 c -0.904568,-0.354 -3.12241,-1.54412 -4.13986,-2.22142 -4.906435,-3.26622 -8.573837,-8.25357 -10.186021,-13.8521 -2.5358,-8.80585 -0.117341,-18.23254 6.332325,-24.68222 5.818394,-5.81839 14.127049,-8.40215 22.215278,-6.90831 10.230447,1.8895 18.170113,9.8291 20.059601,20.05959 0.837264,4.53359 0.358455,9.50965 -1.320713,13.72294 -4.107594,10.3069 -14.334849,16.63449 -25.421963,15.72859 z"
       id="path835"
       inkscape:connector-curvature="0" />
  </g>
</svg>
