<?xml version="1.0" encoding="UTF-8" standalone="no"?>
<!-- Created with Inkscape (http://www.inkscape.org/) -->

<svg
   xmlns:dc="http://purl.org/dc/elements/1.1/"
   xmlns:cc="http://creativecommons.org/ns#"
   xmlns:rdf="http://www.w3.org/1999/02/22-rdf-syntax-ns#"
   xmlns:svg="http://www.w3.org/2000/svg"
   xmlns="http://www.w3.org/2000/svg"
   xmlns:sodipodi="http://sodipodi.sourceforge.net/DTD/sodipodi-0.dtd"
   xmlns:inkscape="http://www.inkscape.org/namespaces/inkscape"
   width="3.718636mm"
   height="3.0962379mm"
   viewBox="0 0 3.718636 3.0962379"
   version="1.1"
   id="svg8"
   inkscape:version="0.92.4 (5da689c313, 2019-01-14)"
   sodipodi:docname="tweet.svg">
  <defs
     id="defs2" />
  <sodipodi:namedview
     id="base"
     pagecolor="#ffffff"
     bordercolor="#666666"
     borderopacity="1.0"
     inkscape:pageopacity="0.0"
     inkscape:pageshadow="2"
     inkscape:zoom="7.9195959"
     inkscape:cx="52.594008"
     inkscape:cy="-4.6513658"
     inkscape:document-units="mm"
     inkscape:current-layer="layer1"
     showgrid="false"
     inkscape:window-width="1920"
     inkscape:window-height="1001"
     inkscape:window-x="-9"
     inkscape:window-y="-9"
     inkscape:window-maximized="1"
     fit-margin-top="0"
     fit-margin-left="0"
     fit-margin-right="0"
     fit-margin-bottom="0" />
  <metadata
     id="metadata5">
    <rdf:RDF>
      <cc:Work
         rdf:about="">
        <dc:format>image/svg+xml</dc:format>
        <dc:type
           rdf:resource="http://purl.org/dc/dcmitype/StillImage" />
        <dc:title></dc:title>
      </cc:Work>
    </rdf:RDF>
  </metadata>
  <g
     inkscape:label="Capa 1"
     inkscape:groupmode="layer"
     id="layer1"
     transform="translate(-68.444251,-92.856642)">
    <g
       id="g837"
       transform="matrix(0.26458333,0,0,0.26458333,67.657736,91.758928)"
       style="fill:#0090f7;fill-opacity:1">
      <g
         style="fill:#0090f7;fill-opacity:1"
         transform="translate(0.28804765,0.68989069)"
         id="g9384">
        <path
           inkscape:connector-curvature="0"
           id="path9398"
           d="m 6.0400837,15.10134 c -1.4840866,-0.176264 -3.355475,-0.902092 -3.355475,-1.301439 0,-0.176914 0.1109454,-0.21917 0.7382813,-0.281187 0.9520551,-0.09412 1.4653149,-0.224843 2.2480327,-0.572561 L 6.305674,12.664168 5.9118404,12.528775 C 5.2615955,12.305231 4.660814,11.843641 4.3193868,11.305266 3.9669652,10.749554 3.911734,10.428309 4.1527144,10.335836 4.2667374,10.292081 4.1952208,10.163025 3.8850936,9.8528978 3.3608504,9.3286546 3.1472806,8.9243758 3.0087822,8.194077 2.8782275,7.5056646 2.9692339,7.3745963 3.4591894,7.5453956 3.793915,7.6620816 3.8034615,7.6583131 3.6375526,7.4749859 3.020708,6.7933804 2.8223514,5.3089805 3.2285382,4.4141316 3.3445884,4.1584676 3.4807093,3.9492879 3.531029,3.9492879 c 0.05032,0 0.3357339,0.2496574 0.6342538,0.5547942 C 5.2505689,5.6134244 6.4598659,6.3204739 7.9033699,6.68966 9.1175852,7.000204 9.0995886,7.0059809 9.190741,6.2764221 9.4880888,3.8965303 11.884001,2.716556 13.8919,3.961126 c 0.510291,0.3162974 0.569975,0.3287232 0.984375,0.204939 0.242631,-0.072476 0.631572,-0.2287155 0.864316,-0.3471998 0.267085,-0.135967 0.461472,-0.1771237 0.527012,-0.1115824 0.120281,0.1202804 -0.145263,0.8280098 -0.434822,1.1588921 -0.17867,0.2041676 -0.177228,0.2102547 0.03151,0.133062 0.52214,-0.1930864 0.820313,-0.2050633 0.820313,-0.03295 0,0.1902811 -0.417555,0.7180576 -0.97,1.2260531 -0.346501,0.3186241 -0.373843,0.397049 -0.459318,1.3174014 -0.443592,4.7764306 -4.535509,8.1474016 -9.2152023,7.5915986 z"
           style="fill:#0090f7;fill-opacity:1;stroke-width:1" />
        <path
           inkscape:connector-curvature="0"
           id="path9396"
           d="M 6.1846087,15.091681 C 5.1267522,15.003289 4.5740875,14.852939 3.532265,14.370123 2.9544394,14.102341 2.6846087,13.91724 2.6846087,13.78864 c 0,-0.155715 0.1479909,-0.202201 0.8476563,-0.266256 0.8940039,-0.08185 1.8866891,-0.365138 2.4235697,-0.691635 L 6.2772189,12.635303 5.7522178,12.448839 C 5.4634672,12.346284 5.0347138,12.075558 4.7994325,11.847225 4.0609084,11.130512 3.7613472,10.168755 4.3331631,10.350242 4.4744373,10.395081 4.3645209,10.242202 4.0436914,9.9476274 3.4327357,9.3866682 3.0152923,8.5624346 3.0138022,7.9141316 3.01267,7.4215937 3.0567398,7.3882646 3.4908826,7.5533254 L 3.7645221,7.657363 3.4995654,7.2669275 C 2.9866719,6.5111366 2.8718426,5.4877971 3.1978616,4.5781941 3.4033549,4.0048618 3.676961,3.8935974 3.9141506,4.2869088 c 0.2440157,0.4046307 1.7074371,1.5057675 2.5216408,1.8973838 0.7969883,0.383336 1.9538811,0.7135117 2.5105361,0.7165036 0.2900012,0.00156 0.3008195,-0.018963 0.3018497,-0.5726021 0.0013,-0.6983711 0.3626971,-1.519698 0.8878808,-2.0178348 1.003103,-0.9514427 2.748211,-1.0928275 3.810961,-0.3087556 0.465549,0.3434711 0.673179,0.3436633 1.408607,0.0013 0.565972,-0.2634741 1.000858,-0.3500211 1.000858,-0.1991815 0,0.040253 -0.151987,0.3424932 -0.337748,0.6716447 -0.27818,0.4929067 -0.302293,0.5847458 -0.136719,0.5207154 0.110566,-0.042758 0.336381,-0.1050568 0.50181,-0.1384417 0.488477,-0.098578 0.372208,0.199704 -0.410156,1.0522313 -0.65675,0.7156479 -0.710937,0.8125268 -0.710937,1.2710401 0,1.2378574 -0.573412,3.024606 -1.373828,4.280841 -0.519368,0.815136 -1.796507,2.062758 -2.595278,2.535294 -1.4228161,0.841709 -3.3063291,1.24526 -5.1090193,1.09463 z"
           style="fill:#0090f7;fill-opacity:1;stroke-width:1" />
        <path
           inkscape:connector-curvature="0"
           id="path9394"
           d="M 4.9814837,14.887333 C 3.9710211,14.616698 2.7392962,14.015558 2.7392962,13.793038 c 0,-0.12238 0.194521,-0.184948 0.765625,-0.246267 0.9008566,-0.09672 2.0628056,-0.431617 2.4907677,-0.717885 L 6.2989567,12.626028 5.8747534,12.498934 C 5.3404388,12.338849 4.4917557,11.599466 4.2112861,11.0497 3.9215942,10.481857 3.9387283,10.402959 4.3525774,10.399087 4.6714763,10.396103 4.6855416,10.383369 4.4892962,10.275309 3.7001605,9.8407832 3.0156772,8.7395125 3.0138022,7.9013751 3.0126761,7.398042 3.0363265,7.3865745 3.5994124,7.6174246 3.775211,7.6894974 3.7654915,7.6422661 3.5288156,7.2743649 3.1228044,6.6432401 2.9778253,6.0773314 3.0416963,5.3729517 3.0995003,4.7354782 3.3693754,4.0586629 3.565759,4.0586629 c 0.060449,0 0.260283,0.1712679 0.4440748,0.3805953 0.4510742,0.513745 1.5438257,1.3238152 2.3021664,1.7066244 0.7196831,0.3632949 2.0594064,0.7565303 2.5774414,0.7565303 0.3554798,0 0.3576671,-0.00329 0.3576671,-0.5378073 0,-0.983907 0.5846154,-1.9530718 1.5026593,-2.4910813 0.38491,-0.2255723 0.68081,-0.3007347 1.328316,-0.3374092 0.78804,-0.044634 0.873849,-0.025868 1.586916,0.347056 0.414607,0.216833 0.824572,0.3942418 0.911034,0.3942418 0.08646,0 0.47275,-0.1262388 0.85842,-0.2805305 0.385668,-0.1542918 0.750532,-0.2500508 0.810808,-0.2127979 0.109566,0.067715 -0.133464,0.6066813 -0.510431,1.1319803 L 15.551235,5.1719041 15.967217,4.998096 c 0.941029,-0.3931868 0.948305,-0.1224766 0.02363,0.8792835 l -0.693758,0.7515959 -0.06854,0.9036319 C 14.983043,10.769238 12.703525,13.693805 9.617024,14.732062 8.4063911,15.139303 6.1983962,15.213261 4.9814837,14.887333 Z"
           style="fill:#0090f7;fill-opacity:1;stroke-width:1" />
        <path
           inkscape:connector-curvature="0"
           id="path9392"
           d="m 5.2549212,14.939256 c -1.2757289,-0.280548 -2.6311736,-0.908014 -2.542185,-1.176834 0.02588,-0.07818 0.3576074,-0.162201 0.8009927,-0.202877 0.9425167,-0.08647 1.5838139,-0.25766 2.2724916,-0.606639 L 6.3211831,12.68182 5.7333646,12.410477 C 5.0424383,12.091538 4.4977553,11.601174 4.2062743,11.035676 3.9227253,10.485567 3.9405008,10.402413 4.3416441,10.402413 H 4.6861796 L 4.234378,10.075129 C 3.4998165,9.5430159 2.9297857,8.4513181 3.0321137,7.7726061 3.0740634,7.4943658 3.1147234,7.4813841 3.5397994,7.6105142 L 3.7934276,7.6875617 3.5044901,7.229855 C 3.0851139,6.5655202 2.9401634,5.7586454 3.1065949,5.0149507 3.1803018,4.6855939 3.3081173,4.3237949 3.3906293,4.2109529 3.5317369,4.0179768 3.582026,4.0455156 4.2369472,4.6744032 5.534,5.9198974 7.2949366,6.7856455 8.8096087,6.9225098 l 0.3828125,0.034591 0.06378,-0.6660463 c 0.08266,-0.8632105 0.444614,-1.5965334 1.0129228,-2.0521928 1.099778,-0.8817816 2.527132,-0.9738229 3.618319,-0.2333234 0.508738,0.3452384 0.808928,0.3419719 1.60998,-0.017519 0.354671,-0.1591668 0.674354,-0.2598964 0.710406,-0.2238437 0.115562,0.115562 -0.06169,0.5958352 -0.343501,0.9307531 -0.150408,0.17875 -0.273469,0.3526257 -0.273469,0.3863905 0,0.033765 0.205765,-0.011208 0.457256,-0.099939 0.306694,-0.1082078 0.493491,-0.1250945 0.567302,-0.051284 0.113934,0.1139349 0.03255,0.2265682 -0.871868,1.2066923 -0.424664,0.4602105 -0.458776,0.5451752 -0.525047,1.3077703 -0.10108,1.1631695 -0.337158,1.9953901 -0.8856,3.1219172 -1.402653,2.881115 -4.153631,4.563218 -7.4054007,4.528081 -0.5589814,-0.006 -1.3116423,-0.07593 -1.6725801,-0.155301 z"
           style="fill:#0090f7;fill-opacity:1;stroke-width:1" />
        <path
           inkscape:connector-curvature="0"
           id="path9390"
           d="M 5.4189837,14.946844 C 4.1673295,14.67855 2.6323806,14.005304 2.7134515,13.760166 2.739212,13.682274 3.0908938,13.601519 3.5791037,13.561393 4.4790918,13.487421 5.651717,13.137799 6.0648506,12.820259 L 6.3279052,12.618072 5.936767,12.488985 C 5.1281849,12.222129 4.2727332,11.38542 4.0550601,10.648507 3.9900244,10.428334 4.0203798,10.402413 4.3432529,10.402413 H 4.7041381 L 4.300709,10.128276 C 4.0788229,9.9775002 3.7447743,9.6324794 3.5583788,9.3615628 3.2244212,8.8761721 2.8963278,7.7479856 3.0456898,7.5986235 3.0878228,7.5564905 3.2895452,7.5733485 3.4939619,7.6360857 L 3.8656286,7.7501535 3.5578402,7.2648217 C 3.1655812,6.6462935 2.9699771,5.8385546 3.0696236,5.2487523 3.1537442,4.7508465 3.4145059,4.0586629 3.517958,4.0586629 c 0.035634,0 0.4214949,0.3322266 0.8574691,0.7382812 0.4359742,0.4060547 1.107526,0.9241111 1.4923372,1.1512362 0.7875248,0.4648168 2.0938771,0.9123205 2.8324694,0.9702901 l 0.4921875,0.03863 0.067184,-0.6250978 C 9.3850229,5.1650912 9.8609968,4.4044478 10.778131,3.9052811 c 1.038853,-0.5654151 2.111707,-0.5072939 3.1927,0.1729625 l 0.512784,0.3226895 0.690341,-0.2887752 c 0.938142,-0.3924331 1.073153,-0.4277402 1.073153,-0.2806442 0,0.1757573 -0.410223,0.9630058 -0.545312,1.0464957 -0.289537,0.1789432 -0.06112,0.2471224 0.346318,0.1033705 0.251492,-0.088731 0.498782,-0.1198034 0.549536,-0.069049 0.11004,0.1100399 -0.548077,1.001709 -0.96174,1.3030415 -0.263314,0.1918108 -0.30659,0.3263404 -0.442101,1.3743392 -0.287249,2.2215043 -1.141411,3.9334554 -2.696428,5.4043094 -0.897619,0.849036 -2.074942,1.503477 -3.3049608,1.837132 -0.9090166,0.246581 -2.8807778,0.307032 -3.7734375,0.115691 z"
           style="fill:#0090f7;fill-opacity:1;stroke-width:1" />
        <path
           inkscape:connector-curvature="0"
           id="path9388"
           d="M 5.4736712,14.941749 C 4.2386897,14.709396 2.6276288,14.019747 2.7134266,13.760166 2.7395658,13.681083 3.1008519,13.601909 3.6230424,13.56083 4.5270527,13.489715 5.432255,13.219928 6.0631415,12.833582 L 6.4338619,12.606558 5.997967,12.489184 C 5.1815395,12.269343 4.3136463,11.447136 4.0627234,10.655813 3.9970466,10.448692 4.0326375,10.412431 4.3311124,10.382376 l 0.3441068,-0.03465 -0.475774,-0.334763 C 3.6402537,9.6195045 3.1516168,8.7888542 3.0520556,8.0624759 2.9758876,7.5067697 3.0523006,7.4543677 3.6226172,7.6712016 3.915968,7.7827333 3.9169778,7.7815101 3.7354917,7.5344828 3.2877773,6.9250828 3.0818549,6.3040952 3.0906631,5.5899129 c 0.00792,-0.6424293 0.2577301,-1.53125 0.4303641,-1.53125 0.037322,0 0.4246062,0.338876 0.8606319,0.7530578 1.1962012,1.1362741 2.7682284,1.9118308 4.3303316,2.136361 l 0.5039446,0.072435 0.058548,-0.6456752 C 9.4945544,3.9478561 11.909066,2.7556026 13.955548,4.0633941 c 0.455014,0.2907735 0.534414,0.3077722 0.929688,0.1990379 0.237702,-0.065388 0.621525,-0.2152479 0.852941,-0.3330211 0.231415,-0.1177733 0.447219,-0.1876685 0.479566,-0.1553227 0.0907,0.090706 -0.197823,0.7153195 -0.491832,1.0647308 -0.298537,0.3547903 -0.238801,0.3790847 0.388182,0.157872 0.242751,-0.085647 0.470187,-0.1268981 0.505417,-0.091669 0.0805,0.080502 -0.408021,0.7284669 -0.928671,1.231766 -0.376513,0.3639673 -0.401748,0.4344144 -0.51262,1.4310301 -0.233167,2.0959079 -1.021667,3.7473199 -2.476233,5.1861569 -1.299094,1.285047 -2.37657,1.84859 -4.2023473,2.197919 -0.9729687,0.18616 -2.0009026,0.182714 -3.0259675,-0.01014 z"
           style="fill:#0090f7;fill-opacity:1;stroke-width:1" />
        <path
           inkscape:connector-curvature="0"
           id="path9386"
           d="M 5.8017962,14.991955 C 4.5116736,14.793127 2.7618893,14.09612 2.8178172,13.80332 2.8433707,13.669539 3.0437464,13.613286 3.6790288,13.561539 4.1343794,13.52445 4.6998442,13.431597 4.9356175,13.355201 5.3994786,13.2049 6.4033587,12.723416 6.4033587,12.65124 c 0,-0.0244 -0.1845703,-0.104513 -0.4101563,-0.178031 C 5.3098445,12.250505 4.6718499,11.739542 4.3301919,11.141321 4.1538788,10.832609 4.0343212,10.540063 4.0645082,10.491219 c 0.030187,-0.04884 0.2119416,-0.08899 0.4038992,-0.08921 L 4.8174212,10.4016 4.4892962,10.200711 C 3.9254441,9.8554979 3.3630514,9.1361071 3.1829689,8.5297036 2.9016321,7.5823397 3.0001649,7.3686327 3.5761667,7.6768995 3.9249943,7.8635863 3.9356678,7.7162874 3.6047507,7.2824326 3.0535611,6.5597858 2.9405602,5.2543381 3.3511859,4.353113 3.5215172,3.9792766 3.5864499,3.9836867 3.9304034,4.3924522 5.001801,5.6657359 6.9567935,6.7162888 8.7109587,6.9613759 L 9.2138713,7.0316409 9.2857253,6.344177 C 9.4212202,5.047833 10.119605,4.1264034 11.275619,3.718767 12.131616,3.4169232 12.780969,3.4927867 13.794955,4.0130995 L 14.569364,4.4104764 15.271518,4.119013 C 15.657702,3.958708 16.035195,3.800456 16.11039,3.7673417 16.361386,3.6568094 16.25134,4.0303929 15.862855,4.6076806 15.507227,5.1361409 15.497041,5.1733103 15.726136,5.1066022 15.86228,5.0669592 16.145937,5.004427 16.356484,4.9676416 l 0.382812,-0.066883 -0.214742,0.2625457 c -0.118108,0.1444001 -0.447108,0.5086394 -0.73111,0.8094207 -0.507291,0.537263 -0.518296,0.5641766 -0.626108,1.53125 -0.401462,3.601114 -2.654783,6.361185 -5.9354794,7.270313 -0.939247,0.260279 -2.5077312,0.359812 -3.4300604,0.217667 z"
           style="fill:#0090f7;fill-opacity:1;stroke-width:1" />
      </g>
      <path
         inkscape:connector-curvature="0"
         id="path9364"
         d=""
         style="fill:#0090f7;fill-opacity:1;stroke-width:1" />
    </g>
  </g>
</svg>
